<svg xmlns="http://www.w3.org/2000/svg" width="1200" height="630" viewBox="0 0 1200 630"><rect width="1200" height="630" fill="#f6f2e8"/><rect x="64" y="54" width="54" height="54" rx="14" fill="#174e36"/><text x="91" y="92" text-anchor="middle" font-family="Arial" font-size="31" font-weight="800" fill="#fffdf8">S</text><text x="138" y="91" font-family="Arial" font-size="31" font-weight="800" fill="#174e36">Servora</text><rect x="64" y="168" width="36" height="4" fill="#e96f35"/><text x="114" y="177" font-family="Arial" font-size="18" font-weight="700" letter-spacing="2" fill="#174e36">SERVORA WAITER</text><text x="64" y="242" font-family="Arial" font-size="54" font-weight="800" fill="#142219">Take orders.</text><text x="64" y="306" font-family="Arial" font-size="54" font-weight="800" fill="#142219">Keep service moving.</text><text x="64" y="392" font-family="Arial" font-size="23" fill="#657068">A focused front-of-house workspace for tables, orders and service.</text><g transform="translate(790 94) rotate(4)"><rect width="210" height="410" rx="38" fill="#142219"/><rect x="10" y="10" width="190" height="390" rx="30" fill="#fffdf8"/><rect x="28" y="38" width="154" height="58" rx="14" fill="#174e36"/><rect x="28" y="120" width="154" height="64" rx="14" fill="#edf2ed"/><circle cx="52" cy="152" r="14" fill="#9fc4ad"/><rect x="74" y="140" width="84" height="10" rx="5" fill="#aab5ad"/><rect x="74" y="158" width="60" height="8" rx="4" fill="#ced5d0"/><rect x="28" y="198" width="154" height="64" rx="14" fill="#f8e4d7"/><circle cx="52" cy="230" r="14" fill="#e9a37d"/><rect x="74" y="218" width="84" height="10" rx="5" fill="#aab5ad"/><rect x="74" y="236" width="60" height="8" rx="4" fill="#ced5d0"/><rect x="28" y="286" width="154" height="58" rx="18" fill="#174e36"/><circle cx="105" cy="372" r="10" fill="#d8dfd9"/></g><g transform="translate(690 360) rotate(-7)"><rect width="172" height="128" rx="20" fill="#fffdf8" stroke="#d9dfd9" stroke-width="3"/><text x="20" y="36" font-family="Arial" font-size="16" font-weight="700" fill="#174e36">TABLE 08</text><rect x="20" y="54" width="132" height="10" rx="5" fill="#d9dfd9"/><rect x="20" y="76" width="102" height="10" rx="5" fill="#d9dfd9"/><rect x="20" y="98" width="58" height="12" rx="6" fill="#f2b38f"/></g><line x1="64" y1="548" x2="1136" y2="548" stroke="#d9dfd9" stroke-width="2"/><text x="64" y="587" font-family="Arial" font-size="18" fill="#657068">Front of house</text><text x="1136" y="587" text-anchor="end" font-family="Arial" font-size="18" font-weight="700" fill="#174e36">servora</text></svg>